<?xml version="1.0" standalone="no"?>
<!DOCTYPE svg PUBLIC "-//W3C//DTD SVG 20010904//EN"
 "http://www.w3.org/TR/2001/REC-SVG-20010904/DTD/svg10.dtd">
<svg version="1.0" xmlns="http://www.w3.org/2000/svg"
 width="512.000000pt" height="512.000000pt" viewBox="0 0 512.000000 512.000000"
 preserveAspectRatio="xMidYMid meet">
<metadata>
Created by potrace 1.11, written by Peter Selinger 2001-2013
</metadata>
<g transform="translate(0.000000,512.000000) scale(0.100000,-0.100000)"
fill="#000000" stroke="none">
<path d="M1952 4692 c-46 -130 -108 -307 -139 -392 -30 -85 -56 -159 -57 -165
-2 -5 -6 -17 -9 -25 -6 -14 -85 -240 -262 -745 -35 -99 -91 -259 -125 -355
-34 -96 -77 -218 -95 -270 -81 -231 -168 -478 -181 -515 -8 -22 -23 -65 -34
-95 -10 -30 -33 -95 -50 -145 -18 -49 -59 -166 -92 -260 -33 -93 -78 -222
-100 -285 -23 -63 -51 -144 -63 -180 -13 -36 -48 -137 -80 -225 -31 -88 -77
-218 -102 -290 -25 -71 -78 -223 -119 -338 -41 -114 -74 -211 -74 -215 0 -8
1066 -10 1073 -2 2 3 47 154 101 335 54 182 106 357 116 390 21 68 72 238 92
305 l13 45 809 0 809 0 54 -175 c30 -96 68 -218 85 -270 16 -52 32 -102 34
-110 2 -8 39 -130 82 -270 l80 -255 556 0 c349 0 556 3 556 9 0 6 -50 152
-111 325 -153 438 -169 483 -179 506 -4 11 -18 49 -30 85 -12 36 -37 108 -56
160 -18 52 -130 372 -249 710 -119 338 -229 651 -245 695 -16 44 -63 179 -105
300 -42 121 -87 249 -100 285 -13 36 -66 187 -119 335 -52 149 -151 430 -219
625 -69 195 -153 435 -188 533 l-62 177 -566 0 -566 0 -83 -238z m723 -1049
c54 -181 106 -353 116 -383 9 -30 81 -266 159 -525 78 -258 159 -526 181 -594
21 -69 37 -126 35 -128 -5 -6 -1167 -6 -1172 0 -3 2 7 45 21 93 14 49 28 98
30 108 2 11 11 40 20 66 9 26 17 55 20 66 2 10 23 80 45 154 38 123 63 210 74
250 3 8 35 116 71 240 207 695 249 836 272 918 9 34 20 62 23 62 3 0 50 -147
105 -327z"/>
</g>
</svg>
