<svg id="2a7d8e63-28fc-4c6e-a06c-2a743a130df1" data-name="Layer 1" xmlns="http://www.w3.org/2000/svg" xmlns:xlink="http://www.w3.org/1999/xlink" viewBox="0 0 112.36 75.45"><defs><clipPath id="60d99e9e-742c-40c1-aa90-638ce7cdd785" transform="translate(0 0)"><rect width="112.36" height="75.45" style="fill:none"/></clipPath></defs><title>logo--echo</title><g style="clip-path:url(#60d99e9e-742c-40c1-aa90-638ce7cdd785)"><path d="M14.22,42.92q-7,0-10.57-3.87T.07,27.63q0-7.22,3.58-11.23t10-4q5.4,0,8.3,3T24.85,24a24.85,24.85,0,0,1-.28,3.69,1.59,1.59,0,0,1-.37.91,1.22,1.22,0,0,1-.82.23H5.52q.11,4.89,2.42,7.22t7.14,2.33a22.65,22.65,0,0,0,3.27-.23,27.2,27.2,0,0,0,4-1L23,37a1.82,1.82,0,0,1,.51-.09q.74,0,.74,1v1.59A1.85,1.85,0,0,1,24,40.62a2.55,2.55,0,0,1-1,.65A19.71,19.71,0,0,1,19,42.47a25,25,0,0,1-4.75.45m5.46-17.79a13.65,13.65,0,0,0,.06-1.48,7.49,7.49,0,0,0-1.62-5.23,6.14,6.14,0,0,0-4.75-1.76A7.25,7.25,0,0,0,7.8,18.79a10,10,0,0,0-2.27,6.34Z" transform="translate(0 0)" style="fill:#00a7ce"/><path d="M42.63,42.7q-6.71,0-10.26-3.84T28.82,27.74q0-7.22,3.67-11.17t10.38-4a17.44,17.44,0,0,1,6,1.08,1.88,1.88,0,0,1,.88.57A1.93,1.93,0,0,1,50,15.41v1.54q0,1.14-.74,1.14a3.91,3.91,0,0,1-.91-.17,16.72,16.72,0,0,0-4.72-.68q-4.77,0-6.88,2.42t-2.1,7.7v.74q0,5.18,2.13,7.59t6.74,2.42a18.3,18.3,0,0,0,5.12-.8,4,4,0,0,1,.85-.17q.74,0,.74,1.14V39.8a1.48,1.48,0,0,1-1.14,1.71,16.34,16.34,0,0,1-6.48,1.19" transform="translate(0 0)" style="fill:#00a7ce"/><path d="M55.79,42.07a1,1,0,0,1-1.14-1.14V1.14A1,1,0,0,1,55.79,0h3.35a1,1,0,0,1,1.14,1.14V16.2a19,19,0,0,1,11-3.81q4.15,0,6.31,2.19t2.16,6.34v20a1,1,0,0,1-1.14,1.14H75.29a1,1,0,0,1-1.14-1.14V22.8a6.71,6.71,0,0,0-1.22-4.44,4.8,4.8,0,0,0-3.84-1.42,15.66,15.66,0,0,0-8.81,2.9V40.93a1,1,0,0,1-1.14,1.14Z" transform="translate(0 0)" style="fill:#00a7ce"/><path d="M98.6,42.92q-6.48,0-10.12-4T84.84,27.63q0-7.16,3.64-11.2t10.12-4q6.48,0,10.12,4t3.64,11.2q0,7.22-3.64,11.26t-10.12,4m0-4.55q8,0,8-10.74t-8-10.69q-8,0-8,10.69t8,10.74" transform="translate(0 0)" style="fill:#00a7ce"/><path d="M101.51,61.55C89.21,70.62,71.39,75.45,56,75.45A82.29,82.29,0,0,1,.5,54.26c-1.15-1-.12-2.46,1.26-1.65A111.79,111.79,0,0,0,57.33,67.35a110.56,110.56,0,0,0,42.39-8.67c2.08-.88,3.82,1.37,1.79,2.87" transform="translate(0 0)" style="fill:#00a7ce;fill-rule:evenodd"/><path d="M106.63,55.71c-1.57-2-10.4-1-14.36-.48-1.2.14-1.39-.91-.31-1.67,7-4.94,18.57-3.52,19.91-1.86s-.35,13.23-6.95,18.75c-1,.85-2,.4-1.53-.72,1.48-3.71,4.81-12,3.23-14" transform="translate(0 0)" style="fill:#00a7ce;fill-rule:evenodd"/></g></svg>