<?xml version="1.0" encoding="utf-8"?>
<!-- Generator: Adobe Illustrator 24.0.2, SVG Export Plug-In . SVG Version: 6.00 Build 0)  -->
<svg version="1.1" id="Layer_1" xmlns="http://www.w3.org/2000/svg" xmlns:xlink="http://www.w3.org/1999/xlink" x="0px" y="0px"
	 viewBox="0 0 600 382" style="enable-background:new 0 0 600 382;" xml:space="preserve">
<style type="text/css">
	.st0{fill:#636466;}
	.st1{fill:url(#c_1_);}
	.st2{fill:#0B5ED7;}
</style>
<path class="st0" d="M433.9,273.6c0,6.6-4.1,12-10.9,12c-3.6,0-7.1-1.9-8.5-4.9v10.4c0,1.4-0.8,1.9-1.9,1.9s-1.9-0.5-1.9-1.9v-27.4
	c0-1.1,0.5-1.6,1.6-1.6c0.8,0,1.4,0.5,1.6,1.6l0.3,3.3c1.6-3.6,5.5-5.2,8.5-5.2C429.7,261.8,433.9,267.3,433.9,273.6L433.9,273.6z
	 M414.1,273.6c0,5.2,3.3,9,7.9,9s7.9-3.8,7.9-9c0-5.2-3.3-9-7.9-9C417.4,264.9,414.1,268.7,414.1,273.6z M461.5,273.3
	c0,1.1-0.8,1.6-1.6,1.6h-16.4c0,4.9,3.6,7.9,8.8,7.9c3.3,0,4.1-0.5,6-1.1c1.1-0.3,1.9,0,1.9,1.1c0,0.8-0.3,1.4-1.1,1.6
	c-1.9,1.1-4.4,1.4-7.4,1.4c-7.7,0-12.3-4.9-12.3-11.8c0-6.8,4.7-12,11.5-12C459.3,261.8,461.5,268.4,461.5,273.3L461.5,273.3z
	 M443.2,272.5h15.1c0-3-1.4-7.9-7.1-7.9C446.4,264.6,443.4,267.9,443.2,272.5L443.2,272.5z M479.6,263.8c0,1.1-0.8,1.6-1.9,1.9
	c-3.3,0.5-5.7,2.7-5.7,6.8v11.2c0,1.4-0.8,1.9-1.9,1.9s-1.9-0.5-1.9-1.9V264c0-1.1,0.5-1.6,1.6-1.6c0.8,0,1.4,0.5,1.4,1.4l0.3,3.3
	c0.8-1.9,3.3-4.7,6-4.7C478.7,262.1,479.6,262.7,479.6,263.8L479.6,263.8z M498.7,262.9c0.8,0.3,1.4,0.8,1.1,1.6
	c0,0.5-0.5,1.1-1.4,1.1c-0.3,0-0.5,0-0.8-0.3c-1.1-0.3-3-0.8-4.9-0.8c-3.3,0-5.2,1.4-5.2,3.6c0,2.5,2.7,3.3,5.7,4.1
	c3.6,1.1,7.9,2.5,7.9,6.8c0,4.4-3.8,6.6-8.8,6.6c-3,0-5.7-0.8-7.4-1.4c-0.5-0.3-1.1-0.8-0.8-1.6c0-0.8,0.5-1.1,1.4-1.1
	c0.3,0,0.5,0,0.8,0.3c1.4,0.5,3.6,1.1,6,1.1c3.8,0,5.5-1.6,5.5-3.6c0-2.5-3-3.3-6.3-4.4c-3.6-1.1-7.4-2.5-7.4-6.8
	c0-4.4,4.1-6.3,8.5-6.3C494.6,261.8,497.1,262.4,498.7,262.9L498.7,262.9z M530.7,273.9c0,7.1-5.5,12-12.3,12
	c-6.8,0-12.3-4.9-12.3-12s5.5-12,12.3-12C525.3,261.8,530.7,266.5,530.7,273.9z M527.2,273.9c0-5.5-3.8-9-8.5-9
	c-4.9,0-8.5,3.6-8.5,9c0,5.5,3.8,9,8.5,9S527.2,279.1,527.2,273.9z M557.8,272v11.8c0,1.4-0.8,1.9-1.9,1.9s-1.9-0.5-1.9-1.9V272
	c0-4.4-1.9-6.8-6-6.8c-4.7,0-6.8,4.1-6.8,7.7v10.9c0,1.4-0.8,1.9-1.9,1.9s-1.9-0.5-1.9-1.9V264c0-1.1,0.5-1.6,1.6-1.6
	c0.8,0,1.4,0.3,1.4,1.6l0.3,3.3c0.5-1.6,3-4.9,8.2-4.9C554.3,261.8,557.8,265.1,557.8,272L557.8,272z M583.9,269.5V281
	c0,1.4,0.8,1.1,1.6,1.4c0.5,0,1.1,0.3,1.1,1.4c0,0.5-0.3,1.1-0.8,1.4c-0.5,0.3-1.6,0.5-2.5,0.5c-1.6,0-3.3-0.8-3.3-2.7v-1.4
	c-1.1,2.5-4.1,4.4-8.5,4.4c-4.4,0-8.2-2.2-8.2-7.1c0-5.5,4.7-7.4,10.1-7.4c2.7,0,5.2,0.3,6,0.5v-2.2c0-4.1-2.5-5.2-6-5.2
	c-2.2,0-4.1,0.3-6,0.8c-1.1,0.3-1.9-0.3-1.9-1.1s0.5-1.4,1.4-1.6c2.2-0.5,4.9-0.8,7.4-0.8C580.3,261.8,583.9,264,583.9,269.5
	L583.9,269.5z M567.7,278.5c0,3.3,2.5,4.7,5.2,4.7c4.1,0,7.4-2.7,7.4-6.3v-2.5c-0.3,0-3-0.5-5.7-0.5
	C571,273.6,567.7,274.7,567.7,278.5L567.7,278.5z M596.4,254.4V281c0,1.4,0.5,1.6,1.6,1.6h0.8c0.5,0,1.1,0.5,1.1,1.4
	c0,0.5-0.5,1.1-1.1,1.4c-0.5,0.3-1.4,0.5-2.2,0.5c-2.7,0-3.8-1.9-3.8-4.1v-27.1c0-1.1,0.8-1.9,1.6-1.9
	C595.6,252.8,596.4,253.4,596.4,254.4L596.4,254.4z M441.5,308.9l-6,18.9c-0.5,1.4-1.4,1.9-2.5,1.9s-2.2-0.5-2.5-1.9l-4.9-16.4
	l-4.9,16.4c-0.3,1.4-1.4,1.9-2.5,1.9c-1.4,0-2.2-0.5-2.5-1.9l-6-18.9c-0.5-1.6,0.3-2.5,1.6-2.5c0.8,0,1.4,0.5,1.6,1.6l5.5,17.5
	l4.9-17.2c0.3-1.4,1.4-1.9,2.2-1.9c1.1,0,1.9,0.5,2.2,1.9l4.9,17.2h0.3l5.5-17.5c0.3-1.1,0.8-1.6,1.6-1.6
	C441.2,306.5,442.1,307.6,441.5,308.9L441.5,308.9z M453.6,306.7c1.1,0,1.6,0.5,1.6,1.6v19.7c0,1.1-0.8,1.9-1.9,1.9
	s-1.9-0.5-1.9-1.9V310l-1.4-0.3c-0.8-0.3-1.1-0.8-1.1-1.6s0.5-1.4,1.6-1.4L453.6,306.7z M455.5,300.4v0.8c0,1.4-1.1,1.9-2.2,1.9
	s-2.2-0.5-2.2-1.9v-0.8c0-1.4,1.1-1.9,2.2-1.9C454.7,298.5,455.5,299.1,455.5,300.4z M477.4,308.1c0,1.1-0.8,1.6-1.9,1.9
	c-3.3,0.5-5.7,2.7-5.7,6.8v11.2c0,1.4-0.8,1.9-1.9,1.9s-1.9-0.5-1.9-1.9v-19.7c0-1.1,0.5-1.6,1.6-1.6c0.8,0,1.4,0.5,1.4,1.4l0.3,3.3
	c0.8-1.9,3.3-4.7,6-4.7C476.5,306.5,477.4,307,477.4,308.1L477.4,308.1z M505,317.7c0,1.1-0.8,1.6-1.6,1.6H487
	c0,4.9,3.6,7.9,8.8,7.9c3.3,0,4.1-0.5,6-1.1c1.1-0.3,1.9,0,1.9,1.1c0,0.8-0.3,1.4-1.1,1.6c-1.9,1.1-4.4,1.4-7.4,1.4
	c-7.7,0-12.3-4.9-12.3-11.8c0-6.8,4.7-12,11.5-12C502.8,306.2,505,312.8,505,317.7L505,317.7z M486.7,316.9h15.1
	c0-3-1.4-7.9-7.1-7.9C490,309.2,487,312.2,486.7,316.9L486.7,316.9z M517.6,299.1v26.6c0,1.4,0.5,1.6,1.6,1.6h0.8
	c0.5,0,1.1,0.5,1.1,1.4c0,0.5-0.5,1.1-1.1,1.4c-0.5,0.3-1.4,0.5-2.2,0.5c-2.7,0-3.8-1.9-3.8-4.1v-27.1c0-1.1,0.8-1.9,1.6-1.9
	C516.8,297.1,517.6,297.7,517.6,299.1L517.6,299.1z M549.9,317.7c0,1.1-0.8,1.6-1.6,1.6h-16.4c0,4.9,3.6,7.9,8.8,7.9
	c3.3,0,4.1-0.5,6-1.1c1.1-0.3,1.9,0,1.9,1.1c0,0.8-0.3,1.4-1.1,1.6c-1.9,1.1-4.4,1.4-7.4,1.4c-7.7,0-12.3-4.9-12.3-11.8
	c0-6.8,4.7-12,11.5-12C547.7,306.2,549.9,312.8,549.9,317.7L549.9,317.7z M531.6,316.9h15.1c0-3-1.4-7.9-7.1-7.9
	C534.9,309.2,531.8,312.2,531.6,316.9L531.6,316.9z M572.1,307.3c0.8,0.3,1.4,0.8,1.1,1.6c0,0.5-0.5,1.1-1.4,1.1
	c-0.3,0-0.5,0-0.8-0.3c-1.1-0.3-3-0.8-4.9-0.8c-3.3,0-5.2,1.4-5.2,3.6c0,2.5,2.7,3.3,5.7,4.1c3.6,1.1,7.9,2.5,7.9,6.8
	c0,4.4-3.8,6.6-8.8,6.6c-3,0-5.7-0.8-7.4-1.4c-0.5-0.3-1.1-0.8-0.8-1.6c0-0.8,0.5-1.1,1.4-1.1c0.3,0,0.5,0,0.8,0.3
	c1.4,0.5,3.6,1.1,6,1.1c3.8,0,5.5-1.6,5.5-3.6c0-2.5-3-3.3-6.3-4.4c-3.6-1.1-7.4-2.5-7.4-6.8c0-4.4,4.1-6.3,8.5-6.3
	C568,306.2,570.4,306.7,572.1,307.3L572.1,307.3z M596.7,307.3c0.8,0.3,1.4,0.8,1.1,1.6c0,0.5-0.5,1.1-1.4,1.1c-0.3,0-0.5,0-0.8-0.3
	c-1.1-0.3-3-0.8-4.9-0.8c-3.3,0-5.2,1.4-5.2,3.6c0,2.5,2.7,3.3,5.7,4.1c3.6,1.1,7.9,2.5,7.9,6.8c0,4.4-3.8,6.6-8.8,6.6
	c-3,0-5.7-0.8-7.4-1.4c-0.5-0.3-1.1-0.8-0.8-1.6c0-0.8,0.5-1.1,1.4-1.1c0.3,0,0.5,0,0.8,0.3c1.4,0.5,3.6,1.1,6,1.1
	c3.8,0,5.5-1.6,5.5-3.6c0-2.5-3-3.3-6.3-4.4c-3.6-1.1-7.4-2.5-7.4-6.8c0-4.4,4.1-6.3,8.5-6.3C592.6,306.2,595.1,306.7,596.7,307.3
	L596.7,307.3z M414.4,343.4V370c0,1.4,0.5,1.6,1.6,1.6h0.8c0.5,0,1.1,0.5,1.1,1.4c0,0.5-0.5,1.1-1.1,1.4s-1.4,0.5-2.2,0.5
	c-2.7,0-3.8-1.9-3.8-4.1v-27.4c0-1.1,0.8-1.9,1.6-1.9C413.9,341.5,414.4,342,414.4,343.4L414.4,343.4z M428.9,351.1
	c1.1,0,1.6,0.5,1.6,1.6v19.7c0,1.1-0.8,1.9-1.9,1.9c-1.1,0-1.9-0.5-1.9-1.9v-18.1l-1.4-0.3c-0.8-0.3-1.1-0.8-1.1-1.6
	c0-0.8,0.5-1.4,1.6-1.4L428.9,351.1z M430.8,344.8v0.8c0,1.4-1.1,1.9-2.2,1.9c-1.1,0-2.2-0.5-2.2-1.9v-0.8c0-1.4,1.1-1.9,2.2-1.9
	C429.7,342.9,430.8,343.4,430.8,344.8z M452.7,351.1h6.3c0.8,0,1.6,0.3,1.6,1.4c0,0.8-0.5,1.4-1.4,1.4l-2.5,0.3
	c1.4,0.8,2.2,2.5,2.2,4.7c0,4.4-3,7.4-8.8,7.4c-1.9,0-3.3-0.3-4.4-0.8c-0.3,0.3-1.6,0.8-1.6,2.2c0,2.5,4.9,2.5,8.2,2.5
	c5.2,0,7.9,1.9,7.9,5.5c0,5.5-5.7,6.6-9.6,6.6c-4.4,0-10.4-0.8-10.4-6.3c0-1.6,0.8-3.3,3-4.7c-1.6-0.8-2.2-1.9-2.2-3.6
	s1.4-3,2.5-3.8c-1.4-1.1-2.2-3.3-2.2-5.5c0-4.9,3.6-7.7,9-7.7L452.7,351.1z M443.4,375.2c0,3.3,3.8,3.8,6.8,3.8
	c2.5,0,6.3-0.3,6.3-3.8c0-2.2-1.6-3-4.9-3s-4.9,0-6.3-0.3C444.3,372.4,443.4,373.5,443.4,375.2L443.4,375.2z M444.3,358.2
	c0,3,1.9,4.9,5.5,4.9c3.6,0,5.5-1.9,5.5-4.9c0-3.3-1.9-4.9-5.2-4.9C446.4,353.3,444.3,355.2,444.3,358.2L444.3,358.2z M472.4,343.4
	v11.5c0.8-1.6,3.3-4.4,7.9-4.4c5.2,0,8.8,3.3,8.8,9.9v11.8c0,1.4-0.8,1.9-1.9,1.9s-1.9-0.5-1.9-1.9v-11.8c0-4.4-1.9-6.8-6-6.8
	c-4.7,0-6.8,4.1-6.8,7.7v10.9c0,1.4-0.8,1.9-1.9,1.9s-1.9-0.5-1.9-1.9v-28.7c0-1.4,0.8-1.9,1.9-1.9S472.4,342,472.4,343.4
	L472.4,343.4z M503.4,345.9v5.2h5.2c1.1,0,1.6,0.5,1.6,1.4s-0.5,1.4-1.6,1.4h-5.2v13.7c0,3.3,1.1,4.4,3.6,4.4c0.8,0,1.4,0,1.6-0.3
	c0.8-0.3,1.6,0.3,1.6,1.1s-0.8,1.4-1.1,1.4c-0.8,0.3-1.9,0.5-3,0.5c-4.4,0-6.3-2.5-6.3-7.4v-13.4h-2.2c-1.1,0-1.6-0.3-1.6-1.1
	s0.5-1.1,1.1-1.1l2.5-0.3l0.3-5.2c0-1.1,0.8-1.4,1.6-1.4C502.8,344.2,503.4,344.8,503.4,345.9L503.4,345.9z M522,351.1
	c1.1,0,1.6,0.5,1.6,1.6v19.7c0,1.1-0.8,1.9-1.9,1.9s-1.9-0.5-1.9-1.9v-18.1l-1.4-0.3c-0.8-0.3-1.1-0.8-1.1-1.6
	c0-0.8,0.5-1.4,1.6-1.4L522,351.1z M523.9,344.8v0.8c0,1.4-1.1,1.9-2.2,1.9s-2.2-0.5-2.2-1.9v-0.8c0-1.4,1.1-1.9,2.2-1.9
	C523.1,342.9,523.9,343.4,523.9,344.8z M554.6,360.7v11.8c0,1.4-0.8,1.9-1.9,1.9c-1.1,0-1.9-0.5-1.9-1.9v-11.8c0-4.4-1.9-6.8-6-6.8
	c-4.7,0-6.8,4.1-6.8,7.7v10.9c0,1.4-0.8,1.9-1.9,1.9c-1.1,0-1.9-0.5-1.9-1.9v-19.7c0-1.1,0.5-1.6,1.6-1.6c0.8,0,1.4,0.3,1.4,1.6
	l0.3,3.3c0.5-1.6,3-4.9,8.2-4.9C551.3,350.5,554.6,353.8,554.6,360.7L554.6,360.7z M575.4,351.1h6.3c0.8,0,1.6,0.3,1.6,1.4
	c0,0.8-0.5,1.4-1.4,1.4l-2.5,0.3c1.4,0.8,2.2,2.5,2.2,4.7c0,4.4-3,7.4-8.8,7.4c-1.9,0-3.3-0.3-4.4-0.8c-0.3,0.3-1.6,0.8-1.6,2.2
	c0,2.5,4.9,2.5,8.2,2.5c5.2,0,7.9,1.9,7.9,5.5c0,5.5-5.7,6.6-9.6,6.6c-4.4,0-10.4-0.8-10.4-6.3c0-1.6,0.8-3.3,3-4.7
	c-1.6-0.8-2.2-1.9-2.2-3.6s1.4-3,2.5-3.8c-1.4-1.1-2.2-3.3-2.2-5.5c0-4.9,3.6-7.7,9-7.7C573.4,350.5,574.5,350.8,575.4,351.1
	L575.4,351.1z M566.1,375.2c0,3.3,3.8,3.8,6.8,3.8c2.5,0,6.3-0.3,6.3-3.8c0-2.2-1.6-3-4.9-3s-4.9,0-6.3-0.3
	C567.2,372.4,566.1,373.5,566.1,375.2L566.1,375.2z M567.2,358.2c0,3,1.9,4.9,5.5,4.9s5.5-1.9,5.5-4.9c0-3.3-1.9-4.9-5.2-4.9
	C569.1,353.3,567.2,355.2,567.2,358.2z"/>
<linearGradient id="c_1_" gradientUnits="userSpaceOnUse" x1="158.6658" y1="302.4963" x2="297.0658" y2="302.4963" gradientTransform="matrix(2.7372 0 0 -2.7372 -434.3 1127.6088)">
	<stop  offset="0" style="stop-color:#ED1C24"/>
	<stop  offset="5.373300e-02" style="stop-color:#EF4423"/>
	<stop  offset="0.1314" style="stop-color:#F26522"/>
	<stop  offset="0.1732" style="stop-color:#F37021"/>
	<stop  offset="0.1857" style="stop-color:#F47521"/>
	<stop  offset="0.2678" style="stop-color:#F8941F"/>
	<stop  offset="0.3316" style="stop-color:#FAA81C"/>
	<stop  offset="0.3688" style="stop-color:#FCAF1A"/>
	<stop  offset="0.4089" style="stop-color:#EFB320"/>
	<stop  offset="0.4855" style="stop-color:#D2BB2B"/>
	<stop  offset="0.5898" style="stop-color:#9CC33C"/>
	<stop  offset="0.6117" style="stop-color:#8DC63F"/>
	<stop  offset="0.6812" style="stop-color:#71BA64"/>
	<stop  offset="0.7752" style="stop-color:#43AF8D"/>
	<stop  offset="0.8198" style="stop-color:#26AB9A"/>
	<stop  offset="0.8555" style="stop-color:#1DA29F"/>
	<stop  offset="0.9265" style="stop-color:#008AA7"/>
	<stop  offset="1" style="stop-color:#006EAB"/>
</linearGradient>
<path id="c" class="st1" d="M326,261.8c-32.3,0-55.3,21.9-58,53.9h-10.4c-3.8,0-6.3,2.2-6.3,6s2.5,6,6.3,6H268
	c2.5,32.8,26,53.9,61.9,53.9c14.8,0,26.6-2.2,36.7-7.1c2.5-1.1,5.2-3.3,4.7-7.4c-0.3-1.6-1.1-3-2.5-3.8c-1.6-1.1-3.8-1.1-6.6-0.3
	c-1.9,0.5-3.8,1.4-5.5,1.9c-6.6,2.2-12,4.4-25.2,4.4c-27.6,0-46-16.1-46.5-41.1v-0.3h85.9c4.9,0,7.7-2.5,7.9-7.4v-0.8
	C378.3,265.9,338.3,261.8,326,261.8L326,261.8z M363.5,315.8h-78.8v-0.5c1.9-24.9,18.3-41.1,41.9-41.1c17.8,0,37,10.7,37,41.1V315.8
	z M150.5,271.4c0-5.2-3-8.5-8.2-8.5s-8.2,3-8.2,8.5v44.1h16.4V271.4z M218.2,331.6c0,20.8-15.1,37.2-33.9,37.2
	c-22.7,0-33.7-12-33.7-36.7v-4.4h-16.4v5.5c0,32,15.1,48.4,45.2,48.4c17.8,0,30.7-7.7,38.6-22.7l0.3-0.5v13.7c0,5.2,3,8.5,8.2,8.5
	s8.2-3,8.2-8.5v-44.3h-16.4V331.6z M226.4,263.2c-5.2,0-8.2,3-8.2,8.5v44.1h16.4v-44.3C234.6,266.2,231.6,263.2,226.4,263.2z
	 M57.5,261.8c-26.3,0-36.4,17-38.9,22.2l-2.2,4.1v-61.9c0-5.5-3.3-8.8-8.2-8.8c-5.2,0-8.2,3.3-8.2,8.8v89.2h16.4v-0.3
	c0-19.7,11.5-40.8,36.4-40.8c20.3,0,31.5,13.1,31.5,36.7v4.4h16.4v-3.8C100.7,279.6,85.4,261.8,57.5,261.8L57.5,261.8z M0,371.6
	c0,5.5,3,8.8,8.2,8.8c4.9,0,8.2-3.3,8.2-8.8v-43.8H0V371.6z M84.3,371.6c0,5.5,3,8.8,8.2,8.8c4.9,0,8.2-3.3,8.2-8.8v-43.8H84.3
	V371.6z"/>
<path class="st2" d="M203.4,3.6H171v42h-33.6v-42h-32.1v105.7h32.1V67.7H171v41.6h32.4V3.6z M315.4,88.1V3.9h-32.1v105.7h58.2
	l4.8-21h-30.9V88.1z M259.4,3.9h-32.3v105.7h32.3V3.9z M390,3.9h-32v105.7h32.1V3.9H390z M549.1,30.9c0-5.7,5.7-8.4,15-8.4
	c10.1,0,21,2.3,28.5,5.3l-2.6-23c-8.4-1.8-15.9-3-29.6-3c-26.1,0-43.8,10.2-43.8,31.8c0,37.1,50.3,29.6,50.3,46.8
	c0,6.6-4.8,10.1-16.8,10.1c-10.5,0-26.7-3.5-36.5-8.4l3.6,24c9.9,3.8,23.1,5.6,33.6,5.6c27,0,49.1-9,49.1-35.4
	c0-35.1-50.6-28.5-50.6-45.3 M458.4,84.4c30,0,48.9-15.5,48.9-42.3c0-29.7-20.3-40.2-53.4-40.2c-12.8,0-28.2,0.9-39.3,2.1v105.7h32
	V84.4h11.6H458.4z M475.6,42.3c0,13.8-6.5,23.1-23.3,23.1h-5.7V21.9c2-0.3,3.6-0.3,5.3-0.3c15.9,0,23.4,7.5,23.4,21 M43.5,84.4
	c30,0,49.1-15.5,49.1-42.3c0-29.7-20.3-40.2-53.3-40.2C26.4,1.8,10.8,2.7,0,3.9v105.7h32.3V84.4h11.4H43.5z M60.8,42.3
	c0,13.8-6.8,23.1-23.6,23.1H32V21.9c1.8-0.3,3.6-0.3,5.3-0.3c15.9,0,23.4,7.5,23.4,21"/>
</svg>
