<svg id="cf67fd53-84c6-4e4c-b0fd-a5af087a7c21" data-name="Layer 1" xmlns="http://www.w3.org/2000/svg" xmlns:xlink="http://www.w3.org/1999/xlink" viewBox="0 0 251.1 41"><defs><linearGradient id="ec49de7d-7d01-4a2c-99fd-399b1218a906" x1="73.83" y1="-11.19" x2="73.83" y2="55.91" gradientTransform="matrix(1, 0, 0, -1, 0, 42)" gradientUnits="userSpaceOnUse"><stop offset="0" stop-color="#ffb50a"/><stop offset="1" stop-color="#ffdb42"/></linearGradient><linearGradient id="ab338960-522e-476a-8b86-fdc5088f750b" x1="21.95" y1="-11.19" x2="21.95" y2="55.91" xlink:href="#ec49de7d-7d01-4a2c-99fd-399b1218a906"/><linearGradient id="15483814-72bb-46ae-a87d-b36c68832760" x1="229.45" y1="-11.19" x2="229.45" y2="55.91" xlink:href="#ec49de7d-7d01-4a2c-99fd-399b1218a906"/><linearGradient id="3f3dca4f-d649-4d6e-90cd-aef7c3c927eb" x1="177.58" y1="-11.19" x2="177.58" y2="55.91" xlink:href="#ec49de7d-7d01-4a2c-99fd-399b1218a906"/><linearGradient id="6c282176-8773-4985-a85c-d0e661b58c27" x1="125.7" y1="-11.19" x2="125.7" y2="55.91" xlink:href="#ec49de7d-7d01-4a2c-99fd-399b1218a906"/></defs><title>Artboard 1</title><path d="M85.53,39.93a2.92,2.92,0,0,1-1.7-.7l-7.5-5.4a4.62,4.62,0,0,0-5.2,0l-7.5,5.4a2.7,2.7,0,0,1-1.7.7,1.27,1.27,0,0,1-.9-.4,2.49,2.49,0,0,1,0-2.1l2.9-8.8a5,5,0,0,0-1.6-5l-7.5-5.4c-1.2-.9-1.3-1.6-1.2-2.1s.6-1,2.2-1h9.3a4.65,4.65,0,0,0,4.2-3.1l2.9-8.8c.5-1.5,1.1-1.8,1.6-1.8s1.1.3,1.6,1.8l2.9,8.8a4.76,4.76,0,0,0,4.2,3.1h9.3c1.5,0,2,.5,2.2,1s.1,1.2-1.2,2.1l-7.6,5.3a4.73,4.73,0,0,0-1.6,5l2.9,8.8a2.46,2.46,0,0,1,0,2.1A1.39,1.39,0,0,1,85.53,39.93Z" style="fill:url(#ec49de7d-7d01-4a2c-99fd-399b1218a906)"/><path d="M73.73,1.93c.4,0,.8.5,1.1,1.4l2.9,8.8a5.2,5.2,0,0,0,4.7,3.4h9.3c2,0,2.3,1,.7,2.1L84.93,23a5.33,5.33,0,0,0-1.8,5.5l2.9,8.8c.4,1.2.2,1.9-.4,1.9a3,3,0,0,1-1.4-.6l-7.5-5.4a5.12,5.12,0,0,0-5.8,0l-7.5,5.4a2.66,2.66,0,0,1-1.4.6c-.6,0-.8-.7-.4-1.9l2.9-8.8a5.21,5.21,0,0,0-1.8-5.5l-7.5-5.4c-1.6-1.2-1.3-2.1.7-2.1h9.3a5.2,5.2,0,0,0,4.7-3.4l2.9-8.8c.1-.9.5-1.4.9-1.4m0-1c-.6,0-1.5.4-2.1,2.1l-2.9,8.8a4.24,4.24,0,0,1-3.8,2.7h-9.3c-1.8,0-2.4.7-2.6,1.3s-.1,1.5,1.4,2.6l7.5,5.4a4.1,4.1,0,0,1,1.4,4.4L60.43,37a2.87,2.87,0,0,0,.1,2.6,1.61,1.61,0,0,0,1.3.6,3.4,3.4,0,0,0,1.9-.8l7.5-5.4a4.18,4.18,0,0,1,2.3-.7,3.51,3.51,0,0,1,2.3.7l7.5,5.4a3.7,3.7,0,0,0,1.9.8,1.61,1.61,0,0,0,1.3-.6,2.87,2.87,0,0,0,.1-2.6l-2.9-8.8a5.28,5.28,0,0,1,1.8-4.3l7.5-5.4c1.5-1.1,1.6-2,1.4-2.6s-.8-1.3-2.6-1.3h-9.3a4.41,4.41,0,0,1-3.8-2.7l-2.9-8.8c-.6-1.8-1.4-2.2-2.1-2.2Z" style="fill:#fe8e0a"/><path d="M33.65,39.93a2.92,2.92,0,0,1-1.7-.7l-7.5-5.4a4.62,4.62,0,0,0-5.2,0l-7.5,5.4a2.7,2.7,0,0,1-1.7.7,1.27,1.27,0,0,1-.9-.4,2.49,2.49,0,0,1,0-2.1l2.9-8.8a5,5,0,0,0-1.6-5L3,18.23c-1.2-.9-1.3-1.6-1.2-2.1s.6-1,2.2-1h9.3a4.65,4.65,0,0,0,4.2-3.1l2.9-8.8c.5-1.5,1.1-1.8,1.6-1.8s1.1.3,1.6,1.8l2.9,8.8a4.76,4.76,0,0,0,4.2,3.1H40c1.5,0,2,.5,2.2,1s.1,1.2-1.2,2.1l-7.6,5.3a4.73,4.73,0,0,0-1.6,5l2.9,8.8a2.46,2.46,0,0,1,0,2.1A1.39,1.39,0,0,1,33.65,39.93Z" style="fill:url(#ab338960-522e-476a-8b86-fdc5088f750b)"/><path d="M21.85,1.93c.4,0,.8.5,1.1,1.4l2.9,8.8a5.2,5.2,0,0,0,4.7,3.4h9.3c2,0,2.3,1,.7,2.1L33.05,23a5.33,5.33,0,0,0-1.8,5.5l2.9,8.8c.4,1.2.2,1.9-.4,1.9a3,3,0,0,1-1.4-.6l-7.5-5.4a5.12,5.12,0,0,0-5.8,0l-7.5,5.4a2.66,2.66,0,0,1-1.4.6c-.6,0-.8-.7-.4-1.9l2.9-8.8a5.21,5.21,0,0,0-1.8-5.5l-7.5-5.4c-1.6-1.2-1.3-2.1.7-2.1h9.3a5.2,5.2,0,0,0,4.7-3.4L21,3.33c.1-.9.5-1.4.9-1.4m0-1c-.6,0-1.5.4-2.1,2.1l-2.9,8.8a4.24,4.24,0,0,1-3.8,2.7H3.75c-1.8,0-2.4.7-2.6,1.3s-.1,1.5,1.4,2.6l7.5,5.4a4.1,4.1,0,0,1,1.4,4.4L8.55,37a2.87,2.87,0,0,0,.1,2.6,1.61,1.61,0,0,0,1.3.6,3.4,3.4,0,0,0,1.9-.8l7.5-5.4a4.18,4.18,0,0,1,2.3-.7A3.51,3.51,0,0,1,24,34l7.5,5.4a3.7,3.7,0,0,0,1.9.8,1.61,1.61,0,0,0,1.3-.6,2.87,2.87,0,0,0,.1-2.6l-2.9-8.8a5.28,5.28,0,0,1,1.8-4.3l7.5-5.4c1.5-1.1,1.6-2,1.4-2.6s-.8-1.3-2.6-1.3h-9.3a4.41,4.41,0,0,1-3.8-2.7L24,3.13c-.6-1.8-1.4-2.2-2.1-2.2Z" style="fill:#fe8e0a"/><path d="M241.15,39.93a2.92,2.92,0,0,1-1.7-.7l-7.5-5.4a4.62,4.62,0,0,0-5.2,0l-7.5,5.4a2.7,2.7,0,0,1-1.7.7,1.27,1.27,0,0,1-.9-.4,2.49,2.49,0,0,1,0-2.1l2.9-8.8a5,5,0,0,0-1.6-5l-7.5-5.4c-1.2-.9-1.3-1.6-1.2-2.1s.6-1,2.2-1h9.3A4.65,4.65,0,0,0,225,12l2.9-8.8c.5-1.5,1.1-1.8,1.6-1.8s1.1.3,1.6,1.8L234,12a4.76,4.76,0,0,0,4.2,3.1h9.3c1.5,0,2,.5,2.2,1s.1,1.2-1.2,2.1l-7.6,5.3a4.73,4.73,0,0,0-1.6,5l2.9,8.8a2.46,2.46,0,0,1,0,2.1A1.39,1.39,0,0,1,241.15,39.93Z" style="fill:url(#15483814-72bb-46ae-a87d-b36c68832760)"/><path d="M229.35,1.93c.4,0,.8.5,1.1,1.4l2.9,8.8a5.2,5.2,0,0,0,4.7,3.4h9.3c2,0,2.3,1,.7,2.1l-7.5,5.4a5.33,5.33,0,0,0-1.8,5.5l2.9,8.8c.4,1.2.2,1.9-.4,1.9a3,3,0,0,1-1.4-.6l-7.5-5.4a5.12,5.12,0,0,0-5.8,0l-7.5,5.4a2.66,2.66,0,0,1-1.4.6c-.6,0-.8-.7-.4-1.9l2.9-8.8a5.21,5.21,0,0,0-1.8-5.5l-7.5-5.4c-1.6-1.2-1.3-2.1.7-2.1h9.3a5.2,5.2,0,0,0,4.7-3.4l2.9-8.8c.1-.9.5-1.4.9-1.4m0-1c-.6,0-1.5.4-2.1,2.1l-2.9,8.8a4.24,4.24,0,0,1-3.8,2.7h-9.3c-1.8,0-2.4.7-2.6,1.3s-.1,1.5,1.4,2.6l7.5,5.4a4.1,4.1,0,0,1,1.4,4.4l-2.9,8.8a2.87,2.87,0,0,0,.1,2.6,1.61,1.61,0,0,0,1.3.6,3.4,3.4,0,0,0,1.9-.8l7.5-5.4a4.18,4.18,0,0,1,2.3-.7,3.51,3.51,0,0,1,2.3.7l7.5,5.4a3.7,3.7,0,0,0,1.9.8,1.61,1.61,0,0,0,1.3-.6,2.87,2.87,0,0,0,.1-2.6l-2.9-8.8a5.28,5.28,0,0,1,1.8-4.3l7.5-5.4c1.5-1.1,1.6-2,1.4-2.6s-.8-1.3-2.6-1.3h-9.3a4.41,4.41,0,0,1-3.8-2.7l-2.9-8.8c-.6-1.8-1.4-2.2-2.1-2.2Z" style="fill:#fe8e0a"/><path d="M189.28,39.93a2.92,2.92,0,0,1-1.7-.7l-7.5-5.4a4.62,4.62,0,0,0-5.2,0l-7.5,5.4a2.7,2.7,0,0,1-1.7.7,1.27,1.27,0,0,1-.9-.4,2.49,2.49,0,0,1,0-2.1l2.9-8.8a5,5,0,0,0-1.6-5l-7.5-5.4c-1.2-.9-1.3-1.6-1.2-2.1s.6-1,2.2-1h9.3a4.65,4.65,0,0,0,4.2-3.1l2.9-8.8c.5-1.5,1.1-1.8,1.6-1.8s1.1.3,1.6,1.8l2.9,8.8a4.76,4.76,0,0,0,4.2,3.1h9.3c1.5,0,2,.5,2.2,1s.1,1.2-1.2,2.1l-7.6,5.3a4.73,4.73,0,0,0-1.6,5l2.9,8.8a2.46,2.46,0,0,1,0,2.1A1.39,1.39,0,0,1,189.28,39.93Z" style="fill:url(#3f3dca4f-d649-4d6e-90cd-aef7c3c927eb)"/><path d="M177.48,1.93c.4,0,.8.5,1.1,1.4l2.9,8.8a5.2,5.2,0,0,0,4.7,3.4h9.3c2,0,2.3,1,.7,2.1l-7.5,5.4a5.33,5.33,0,0,0-1.8,5.5l2.9,8.8c.4,1.2.2,1.9-.4,1.9a3,3,0,0,1-1.4-.6l-7.5-5.4a5.12,5.12,0,0,0-5.8,0l-7.5,5.4a2.66,2.66,0,0,1-1.4.6c-.6,0-.8-.7-.4-1.9l2.9-8.8a5.21,5.21,0,0,0-1.8-5.5l-7.5-5.4c-1.6-1.2-1.3-2.1.7-2.1H169a5.2,5.2,0,0,0,4.7-3.4l2.9-8.8c.1-.9.5-1.4.9-1.4m0-1c-.6,0-1.5.4-2.1,2.1l-2.9,8.8a4.24,4.24,0,0,1-3.8,2.7h-9.3c-1.8,0-2.4.7-2.6,1.3s-.1,1.5,1.4,2.6l7.5,5.4a4.1,4.1,0,0,1,1.4,4.4l-2.9,8.8a2.87,2.87,0,0,0,.1,2.6,1.61,1.61,0,0,0,1.3.6,3.4,3.4,0,0,0,1.9-.8L175,34a4.18,4.18,0,0,1,2.3-.7,3.51,3.51,0,0,1,2.3.7l7.5,5.4a3.7,3.7,0,0,0,1.9.8,1.61,1.61,0,0,0,1.3-.6,2.87,2.87,0,0,0,.1-2.6l-2.9-8.8a5.28,5.28,0,0,1,1.8-4.3l7.5-5.4c1.5-1.1,1.6-2,1.4-2.6s-.8-1.3-2.6-1.3h-9.3a4.41,4.41,0,0,1-3.8-2.7l-2.9-8.8c-.6-1.8-1.4-2.2-2.1-2.2Z" style="fill:#fe8e0a"/><path d="M137.4,39.93a2.92,2.92,0,0,1-1.7-.7l-7.5-5.4a4.62,4.62,0,0,0-5.2,0l-7.5,5.4a2.7,2.7,0,0,1-1.7.7,1.27,1.27,0,0,1-.9-.4,2.49,2.49,0,0,1,0-2.1l2.9-8.8a5,5,0,0,0-1.6-5l-7.5-5.4c-1.2-.9-1.3-1.6-1.2-2.1s.6-1,2.2-1H117a4.65,4.65,0,0,0,4.2-3.1l2.9-8.8c.5-1.5,1.1-1.8,1.6-1.8s1.1.3,1.6,1.8l2.9,8.8a4.76,4.76,0,0,0,4.2,3.1h9.3c1.5,0,2,.5,2.2,1s.1,1.2-1.2,2.1l-7.6,5.3a4.73,4.73,0,0,0-1.6,5l2.9,8.8a2.46,2.46,0,0,1,0,2.1A1.39,1.39,0,0,1,137.4,39.93Z" style="fill:url(#6c282176-8773-4985-a85c-d0e661b58c27)"/><path d="M125.6,1.93c.4,0,.8.5,1.1,1.4l2.9,8.8a5.2,5.2,0,0,0,4.7,3.4h9.3c2,0,2.3,1,.7,2.1L136.8,23a5.33,5.33,0,0,0-1.8,5.5l2.9,8.8c.4,1.2.2,1.9-.4,1.9a3,3,0,0,1-1.4-.6l-7.5-5.4a5.12,5.12,0,0,0-5.8,0l-7.5,5.4a2.66,2.66,0,0,1-1.4.6c-.6,0-.8-.7-.4-1.9l2.9-8.8a5.21,5.21,0,0,0-1.8-5.5l-7.5-5.4c-1.6-1.2-1.3-2.1.7-2.1h9.3a5.2,5.2,0,0,0,4.7-3.4l2.9-8.8c.1-.9.5-1.4.9-1.4m0-1c-.6,0-1.5.4-2.1,2.1l-2.9,8.8a4.24,4.24,0,0,1-3.8,2.7h-9.3c-1.8,0-2.4.7-2.6,1.3s-.1,1.5,1.4,2.6l7.5,5.4a4.1,4.1,0,0,1,1.4,4.4L112.3,37a2.87,2.87,0,0,0,.1,2.6,1.61,1.61,0,0,0,1.3.6,3.4,3.4,0,0,0,1.9-.8l7.5-5.4a4.18,4.18,0,0,1,2.3-.7,3.51,3.51,0,0,1,2.3.7l7.5,5.4a3.7,3.7,0,0,0,1.9.8,1.61,1.61,0,0,0,1.3-.6,2.87,2.87,0,0,0,.1-2.6l-2.9-8.8a5.28,5.28,0,0,1,1.8-4.3l7.5-5.4c1.5-1.1,1.6-2,1.4-2.6s-.8-1.3-2.6-1.3h-9.3a4.41,4.41,0,0,1-3.8-2.7l-2.9-8.8c-.6-1.8-1.4-2.2-2.1-2.2Z" style="fill:#fe8e0a"/></svg>