<svg id="338df2f8-3608-4f56-ab69-6dafc9ef1c61" data-name="logo" xmlns="http://www.w3.org/2000/svg" viewBox="0 0 174.81 72.76"><title>logo</title><g id="f3919a58-9110-48e1-8df9-55981e15ded5" data-name="Starter kit" style="isolation:isolate"><g style="isolation:isolate"><path d="M7,64a8.56,8.56,0,0,1-3.72-2.34,5.82,5.82,0,0,1,.89-7.85,8.38,8.38,0,0,1,5.41-1.63,15.47,15.47,0,0,1,5.57,1v3.31a17.75,17.75,0,0,0-5.23-.87q-3.43,0-3.43,2.21a1.7,1.7,0,0,0,.59,1.34,7.32,7.32,0,0,0,2.22,1.1l2.15.78a9.26,9.26,0,0,1,3.85,2.31,5.06,5.06,0,0,1,1.15,3.44,5.72,5.72,0,0,1-2.15,4.72,9.15,9.15,0,0,1-5.89,1.73A17.53,17.53,0,0,1,5.18,73a12.41,12.41,0,0,1-2.79-.83V68.82a23.64,23.64,0,0,0,3.11.7,19.27,19.27,0,0,0,3,.26,4.71,4.71,0,0,0,2.64-.62,2,2,0,0,0,.93-1.79,1.84,1.84,0,0,0-.57-1.42,7.58,7.58,0,0,0-2.28-1.16Z" transform="translate(-2.16 -0.5)" style="fill:#232f3e"/><path d="M24.23,72.77V56.14H18.1V52.65H34.7v3.48H28.58V72.77Z" transform="translate(-2.16 -0.5)" style="fill:#232f3e"/><path d="M47.71,72.77l-1.42-4.59H39.41L38,72.77H33.49l7.08-20.12h4.79l7.08,20.12ZM40.34,65h5.05l-2.55-8.42Z" transform="translate(-2.16 -0.5)" style="fill:#232f3e"/><path d="M54.94,72.77V52.65h7.75a7.12,7.12,0,0,1,5,1.65,5.76,5.76,0,0,1,1.83,4.5,5.41,5.41,0,0,1-1,3.13,6.34,6.34,0,0,1-2.7,2.18l5,8.65h-4.5L62,65H59.12v7.81Zm4.18-10.83h3q3,0,3-3.08t-3-3H59.12Z" transform="translate(-2.16 -0.5)" style="fill:#232f3e"/><path d="M77.58,72.77V56.14H71.46V52.65h16.6v3.48H81.94V72.77Z" transform="translate(-2.16 -0.5)" style="fill:#232f3e"/><path d="M90.73,72.77V52.65H104V56H95.09v4.76h7.23v3.37H95.09V69.4H104v3.37Z" transform="translate(-2.16 -0.5)" style="fill:#232f3e"/><path d="M107.51,72.77V52.65h7.75a7.12,7.12,0,0,1,5,1.65,5.76,5.76,0,0,1,1.83,4.5,5.41,5.41,0,0,1-1,3.13,6.34,6.34,0,0,1-2.7,2.18l5,8.65h-4.5L114.54,65h-2.85v7.81Zm4.18-10.83h3q3,0,3-3.08t-3-3h-3.08Z" transform="translate(-2.16 -0.5)" style="fill:#232f3e"/><path d="M133.61,72.77V52.65H138v8.62l7.29-8.62h4.91L142,62l8.88,10.77h-5.2L138,63.22v9.55Z" transform="translate(-2.16 -0.5)" style="fill:#232f3e"/><path d="M153.23,72.77V52.65h4.35V72.77Z" transform="translate(-2.16 -0.5)" style="fill:#232f3e"/><path d="M166.5,72.77V56.14h-6.13V52.65H177v3.48h-6.12V72.77Z" transform="translate(-2.16 -0.5)" style="fill:#232f3e"/></g></g><g id="215c5420-eee9-401c-a525-8ac901fd2b79" data-name="Smart Home" style="isolation:isolate"><g style="isolation:isolate"><path d="M7.57,38.11A7.81,7.81,0,0,1,4.19,36a4.86,4.86,0,0,1-1-3.19,4.84,4.84,0,0,1,1.84-4,7.64,7.64,0,0,1,4.94-1.48,14.1,14.1,0,0,1,5.08,1v3a16.2,16.2,0,0,0-4.77-.79q-3.13,0-3.13,2a1.55,1.55,0,0,0,.54,1.22,6.68,6.68,0,0,0,2,1l2,.72a8.45,8.45,0,0,1,3.51,2.1,4.62,4.62,0,0,1,1,3.14,5.23,5.23,0,0,1-2,4.3,8.35,8.35,0,0,1-5.38,1.58,16,16,0,0,1-3-.28,11.33,11.33,0,0,1-2.54-.75v-3a21.65,21.65,0,0,0,2.83.64,17.6,17.6,0,0,0,2.73.24,4.3,4.3,0,0,0,2.41-.57,1.85,1.85,0,0,0,.85-1.63,1.68,1.68,0,0,0-.52-1.3,6.9,6.9,0,0,0-2.08-1.06Z" transform="translate(-2.16 -0.5)" style="fill:#232f3e"/><path d="M34.64,46.14V33.43l-4.05,8.24H27L23,33.43V46.14h-3.5V27.79h4.34l5,10.43,5-10.43h4.26V46.14Z" transform="translate(-2.16 -0.5)" style="fill:#232f3e"/><path d="M53.39,46.14,52.09,42H45.82l-1.24,4.18H40.41l6.46-18.35h4.37l6.46,18.35Zm-6.73-7h4.61l-2.33-7.68Z" transform="translate(-2.16 -0.5)" style="fill:#232f3e"/><path d="M60,46.14V27.79h7.07a6.5,6.5,0,0,1,4.53,1.51,5.26,5.26,0,0,1,1.67,4.1,4.93,4.93,0,0,1-.87,2.86,5.79,5.79,0,0,1-2.46,2l4.55,7.89h-4.1l-4-7.12H63.8v7.12Zm3.81-9.88h2.75a2.47,2.47,0,0,0,2.78-2.81A2.42,2.42,0,0,0,66.6,30.7H63.8Z" transform="translate(-2.16 -0.5)" style="fill:#232f3e"/><path d="M80.64,46.14V31H75.05V27.79H90.2V31H84.61V46.14Z" transform="translate(-2.16 -0.5)" style="fill:#232f3e"/><path d="M110.86,46.14V38.33h-7.31v7.81h-4V27.79h4v7.47h7.31V27.79h4V46.14Z" transform="translate(-2.16 -0.5)" style="fill:#232f3e"/><path d="M118.54,36.95a11.6,11.6,0,0,1,1-5.08,7.59,7.59,0,0,1,3.07-3.35,10.47,10.47,0,0,1,9.57,0,7.7,7.7,0,0,1,3.11,3.3,11.29,11.29,0,0,1,1.1,5.18,11.59,11.59,0,0,1-1,5.08,7.66,7.66,0,0,1-3.07,3.36,9.36,9.36,0,0,1-4.83,1.19,9.47,9.47,0,0,1-4.74-1.14,7.68,7.68,0,0,1-3.11-3.31A11.38,11.38,0,0,1,118.54,36.95Zm4.08,0a7.79,7.79,0,0,0,1.25,4.77,4.83,4.83,0,0,0,7.26,0,7.79,7.79,0,0,0,1.25-4.77,7.73,7.73,0,0,0-1.25-4.75,4.86,4.86,0,0,0-7.26,0A7.73,7.73,0,0,0,122.61,36.95Z" transform="translate(-2.16 -0.5)" style="fill:#232f3e"/><path d="M155.29,46.14V33.43l-4.05,8.24h-3.55l-4.05-8.24V46.14h-3.5V27.79h4.34l5,10.43,5-10.43h4.26V46.14Z" transform="translate(-2.16 -0.5)" style="fill:#232f3e"/><path d="M163,46.14V27.79H175.1v3.07H167V35.2h6.59v3.07H167v4.79h8.1v3.07Z" transform="translate(-2.16 -0.5)" style="fill:#232f3e"/></g></g><g id="312b58bd-69a5-49de-9ba7-95012a3c6555" data-name="Alexa" style="isolation:isolate"><g style="isolation:isolate"><path d="M57.27,21.29,55.8,16.55H48.69l-1.41,4.74H42.57L49.89.5h4.95l7.32,20.79Zm-7.62-8h5.22l-2.64-8.7Z" transform="translate(-2.16 -0.5)" style="fill:#232f3e"/><path d="M64.74,21.29V.5h4.5V17.69h9.12v3.6Z" transform="translate(-2.16 -0.5)" style="fill:#232f3e"/><path d="M81,21.29V.5H94.7V4H85.52V8.9H93v3.48H85.52v5.43H94.7v3.48Z" transform="translate(-2.16 -0.5)" style="fill:#232f3e"/><path d="M109.67,21.29l-4.35-7.68L101,21.29H96.08l6.75-10.8L96.59.5h5.07l3.81,6.75L109.28.5h4.95l-6.33,9.93,6.84,10.86Z" transform="translate(-2.16 -0.5)" style="fill:#232f3e"/><path d="M130.64,21.29l-1.47-4.74h-7.11l-1.41,4.74h-4.71L123.26.5h5l7.32,20.79Zm-7.62-8h5.22l-2.64-8.7Z" transform="translate(-2.16 -0.5)" style="fill:#232f3e"/></g></g></svg>